<svg width="32" height="32" viewBox="0 0 32 32" fill="none" xmlns="http://www.w3.org/2000/svg">
<path d="M28.3261 19.6359C28.8768 19.6359 29.3234 20.0826 29.3234 20.6332C29.3234 20.6495 29.2654 21.3839 29.2065 22.1579L29.1715 22.6216C29.1374 23.0791 29.107 23.5021 29.0928 23.7439C29.0168 24.9946 28.5314 26.2706 27.7941 27.1586C26.7674 28.3959 25.4594 28.9746 23.6808 28.9786C23.6502 28.9786 23.6161 28.9787 23.5785 28.9787L21.8311 28.98C21.7427 28.98 21.6521 28.9801 21.5594 28.9801H10.5068C10.4141 28.9801 10.3235 28.98 10.2351 28.98L8.48817 28.9787L8.38609 28.9786C6.60609 28.9746 5.29809 28.3959 4.27143 27.1572C3.53543 26.2706 3.04876 24.9946 2.97409 23.7439C2.95943 23.5021 2.92876 23.0791 2.89439 22.6216L2.85924 22.1579C2.80012 21.3839 2.74209 20.6495 2.74209 20.6332C2.74209 20.0826 3.18876 19.6359 3.73943 19.6359C4.26343 19.6359 4.68076 20.0439 4.72076 20.5559C4.72076 20.5559 4.92609 22.8879 4.97009 23.6239C5.01943 24.4386 5.35009 25.3252 5.81143 25.8799C6.46476 26.6679 7.18743 26.9759 8.38876 26.9786C8.42896 26.9786 8.4753 26.9787 8.5275 26.9787L10.7503 26.9799C10.877 26.98 11.0071 26.98 11.1403 26.98H20.9245C21.0577 26.98 21.1878 26.98 21.3145 26.9799L23.5379 26.9787L23.6768 26.9786C24.8794 26.9759 25.6021 26.6679 26.2541 25.8812C26.7168 25.3252 27.0474 24.4386 27.0968 23.6239C27.1394 22.8879 27.3448 20.5559 27.3448 20.5559C27.3848 20.0439 27.8021 19.6359 28.3261 19.6359ZM15.9934 19.5122C16.5454 19.5122 16.9934 19.9602 16.9934 20.5122V22.2375C16.9934 22.7895 16.5454 23.2375 15.9934 23.2375C15.4414 23.2375 14.9934 22.7895 14.9934 22.2375V20.5122C14.9934 19.9602 15.4414 19.5122 15.9934 19.5122ZM17.7146 2.66669C19.7173 2.66669 21.3586 4.17335 21.608 6.10802H24.244C27.0426 6.10802 29.32 8.38535 29.32 11.1854V15.808C29.32 16.144 29.152 16.456 28.872 16.6427C26.1226 18.4614 22.86 19.6734 19.4346 20.148C19.3893 20.1547 19.3426 20.1574 19.2973 20.1574C18.8453 20.1574 18.4426 19.8507 18.328 19.4027C18.0586 18.3414 17.096 17.6 15.9866 17.6C14.8653 17.6 13.912 18.3254 13.6146 19.408C13.4813 19.8934 13.0186 20.2054 12.512 20.1347C9.11063 19.66 5.86129 18.4534 3.11596 16.6427C2.83463 16.4574 2.66663 16.144 2.66663 15.808V11.1854C2.66663 8.38535 4.94929 6.10802 7.75596 6.10802H10.3786C10.6293 4.17202 12.2693 2.66669 14.272 2.66669H17.7146ZM24.244 8.10802H7.75596C6.05329 8.10802 4.66663 9.48935 4.66663 11.1854V15.2614C6.85596 16.6174 9.37196 17.5667 12.0146 18.032C12.7666 16.564 14.2933 15.6 15.9866 15.6C17.6946 15.6 19.2146 16.568 19.9453 18.044C22.604 17.576 25.1293 16.6227 27.32 15.2614V11.1854C27.32 9.48935 25.94 8.10802 24.244 8.10802ZM17.7146 4.66669H14.272C13.3746 4.66669 12.6253 5.28135 12.4013 6.10802H19.584C19.3613 5.28135 18.6106 4.66669 17.7146 4.66669Z" fill="#3F5E60"/>
</svg>
