<svg width="54" height="37" viewBox="0 0 54 37" fill="none" xmlns="http://www.w3.org/2000/svg">
<path d="M19.4773 31.2542C19.8727 31.5762 19.9354 32.1618 19.6173 32.5621C19.3821 32.858 19.1103 33.1229 18.8223 33.3401C17.8522 34.1013 16.6187 34.4465 15.3938 34.3006C14.1677 34.1546 13.0494 33.5283 12.2861 32.5586C11.9699 32.1568 12.0353 31.5715 12.4323 31.2514C12.8292 30.9313 13.4074 30.9975 13.7236 31.3993C14.1839 31.9841 14.8623 32.364 15.6085 32.4529C16.3559 32.5419 17.1077 32.3315 17.7101 31.859C17.8877 31.725 18.0474 31.5694 18.1852 31.3959C18.5034 30.9956 19.0819 30.9321 19.4773 31.2542ZM6.86952 16.9997L6.88594 16.2052C6.89767 15.8654 6.91583 15.55 6.94248 15.2413C7.34208 10.9261 11.4609 7.66669 15.9531 7.66669H16.0482C20.5379 7.66669 24.658 10.9238 25.0712 15.2472C25.0949 15.522 25.1051 15.7661 25.1081 16.1094L25.1093 17.1598C25.1103 17.2555 25.112 17.3396 25.1144 17.4181L25.1267 17.6797L25.1861 17.9292C25.3737 18.6241 25.7035 19.2737 26.155 19.8376L26.3559 20.074L26.4382 20.1796C26.9798 20.9889 27.2891 21.9307 27.3334 22.945L27.332 23.4827C27.2943 24.684 26.8532 25.8442 26.0451 26.8109C24.9749 27.9468 23.5245 28.6525 21.9831 28.7943C18.0027 29.2265 13.9867 29.2265 10.0173 28.7955C8.4653 28.6462 7.01927 27.9426 5.90219 26.7631C5.07845 25.7589 4.64057 24.4944 4.66789 23.2166L4.66902 22.8989C4.71661 21.9274 5.02407 20.9865 5.55917 20.1736L5.64873 20.0584C6.27368 19.3733 6.70094 18.5348 6.88633 17.6308L6.86627 17.712L6.86952 16.9997ZM16.0482 9.52715H15.9531C12.3554 9.52715 9.0774 12.1212 8.77292 15.4091C8.75733 15.5897 8.7449 15.7761 8.73519 15.9723L8.71378 16.5941L8.70508 17.8198L8.68589 18.0089C8.4326 19.244 7.84973 20.3879 6.99908 21.3205L7.06477 21.2444L6.94728 21.4388C6.7272 21.8353 6.58522 22.266 6.52912 22.691L6.50582 22.945L6.50561 23.2366C6.4876 24.0857 6.77451 24.9142 7.27161 25.5241C8.03844 26.3313 9.07579 26.836 10.2023 26.9445C14.0524 27.3625 17.937 27.3625 21.8018 26.943C22.9161 26.8403 23.9527 26.336 24.6779 25.5689C25.2266 24.9107 25.5166 24.0796 25.4954 23.2048L25.4965 22.9869C25.4684 22.3581 25.2681 21.7484 24.9165 21.2229L24.9368 21.2568L24.753 21.0412C24.1191 20.2588 23.6587 19.3514 23.4023 18.3786L23.3158 18.0109L23.2986 17.8874C23.2856 17.7069 23.2781 17.5464 23.2741 17.3535L23.2704 16.1474C23.268 15.8406 23.2596 15.6341 23.241 15.4177C22.9259 12.121 19.6448 9.52715 16.0482 9.52715Z" fill="#3F5E60"/>
<rect x="18" y="1" width="35" height="18" rx="9" fill="#FF8628" stroke="white" stroke-width="2"/>
<path d="M29.8013 9.80518H31.9819V10.7451H29.8013V13.2158H28.8022V10.7451H26.6216V9.80518H28.8022V7.52246H29.8013V9.80518ZM36.9019 10.5625C36.6942 10.8096 36.4453 11.0083 36.1553 11.1587C35.8688 11.3091 35.5537 11.3843 35.21 11.3843C34.7588 11.3843 34.3649 11.2733 34.0283 11.0513C33.6953 10.8293 33.4375 10.5177 33.2549 10.1167C33.0723 9.71208 32.981 9.26628 32.981 8.7793C32.981 8.25651 33.0794 7.78564 33.2764 7.3667C33.4769 6.94775 33.7598 6.62728 34.125 6.40527C34.4902 6.18327 34.9163 6.07227 35.4033 6.07227C36.1768 6.07227 36.7855 6.3623 37.2295 6.94238C37.6771 7.51888 37.9009 8.30664 37.9009 9.30566V9.5957C37.9009 11.1175 37.6001 12.2293 36.9985 12.9312C36.397 13.6294 35.4893 13.9875 34.2754 14.0054H34.082V13.1675H34.2915C35.1115 13.1532 35.7417 12.9401 36.1821 12.5283C36.6226 12.113 36.8625 11.4577 36.9019 10.5625ZM35.3711 10.5625C35.7041 10.5625 36.0103 10.4604 36.2896 10.2563C36.5724 10.0522 36.7783 9.7998 36.9072 9.49902V9.10156C36.9072 8.44987 36.7658 7.91992 36.4829 7.51172C36.2 7.10352 35.842 6.89941 35.4087 6.89941C34.9718 6.89941 34.6209 7.06771 34.356 7.4043C34.091 7.7373 33.9585 8.17773 33.9585 8.72559C33.9585 9.25911 34.0856 9.69954 34.3398 10.0469C34.5977 10.3906 34.9414 10.5625 35.3711 10.5625ZM43.0786 10.5625C42.8709 10.8096 42.6221 11.0083 42.332 11.1587C42.0456 11.3091 41.7305 11.3843 41.3867 11.3843C40.9355 11.3843 40.5417 11.2733 40.2051 11.0513C39.8721 10.8293 39.6143 10.5177 39.4316 10.1167C39.249 9.71208 39.1577 9.26628 39.1577 8.7793C39.1577 8.25651 39.2562 7.78564 39.4531 7.3667C39.6536 6.94775 39.9365 6.62728 40.3018 6.40527C40.667 6.18327 41.0931 6.07227 41.5801 6.07227C42.3535 6.07227 42.9622 6.3623 43.4062 6.94238C43.8538 7.51888 44.0776 8.30664 44.0776 9.30566V9.5957C44.0776 11.1175 43.7769 12.2293 43.1753 12.9312C42.5737 13.6294 41.666 13.9875 40.4521 14.0054H40.2588V13.1675H40.4683C41.2882 13.1532 41.9185 12.9401 42.3589 12.5283C42.7993 12.113 43.0392 11.4577 43.0786 10.5625ZM41.5479 10.5625C41.8809 10.5625 42.187 10.4604 42.4663 10.2563C42.7492 10.0522 42.9551 9.7998 43.084 9.49902V9.10156C43.084 8.44987 42.9425 7.91992 42.6597 7.51172C42.3768 7.10352 42.0187 6.89941 41.5854 6.89941C41.1486 6.89941 40.7977 7.06771 40.5327 7.4043C40.2677 7.7373 40.1353 8.17773 40.1353 8.72559C40.1353 9.25911 40.2624 9.69954 40.5166 10.0469C40.7744 10.3906 41.1182 10.5625 41.5479 10.5625Z" fill="white"/>
</svg>
