<svg width="32" height="32" viewBox="0 0 32 32" fill="none" xmlns="http://www.w3.org/2000/svg">
<path d="M13.1067 19.7612C15.0318 19.5914 16.9679 19.5914 18.8929 19.7612L19.5076 19.8132C20.3483 19.8961 21.183 20.0258 22.0045 20.2012C24.0983 20.6325 25.6187 21.3977 26.2917 22.817C26.7917 23.8729 26.7917 25.0988 26.2915 26.1552C25.6168 27.5781 24.0768 28.3497 22.0201 28.7554L21.397 28.8848C20.5641 29.0447 19.7243 29.1538 18.89 29.2108C17.3246 29.3441 15.7518 29.3684 14.2347 29.285C14.0674 29.285 13.9552 29.2844 13.8563 29.2821L13.664 29.2749C13.4301 29.2629 13.2159 29.2384 13.126 29.2121C12.0705 29.1404 11.022 28.9876 10.0162 28.7606L9.675 28.6894C7.77041 28.2662 6.35993 27.5028 5.7075 26.1537C5.4604 25.6303 5.3326 25.058 5.33334 24.4836C5.33119 23.9051 5.46004 23.3336 5.71632 22.7999C6.39581 21.4351 7.99224 20.6138 9.98774 20.2028C11.0216 19.9812 12.0698 19.8332 13.1067 19.7612ZM18.7248 21.684C16.9116 21.5241 15.088 21.5241 13.2573 21.6854C12.2928 21.7525 11.3343 21.8879 10.3814 22.0921C8.9056 22.3961 7.77724 22.9766 7.44158 23.6505C7.31798 23.908 7.25431 24.1904 7.25536 24.4813C7.255 24.7738 7.31953 25.0626 7.44032 25.3187C7.78554 26.0324 8.85028 26.5659 10.4103 26.8716L10.8804 26.9711C11.6676 27.1272 12.4783 27.2348 13.3793 27.3028C13.4931 27.3256 13.6159 27.3397 13.7616 27.3471L14.2864 27.3561C15.7666 27.4362 17.2506 27.4133 18.7434 27.2863C19.7055 27.2204 20.6613 27.0816 21.626 26.8664L21.926 26.8028C23.296 26.4922 24.2439 25.9838 24.5559 25.3259C24.8076 24.7944 24.8076 24.1774 24.5561 23.6464C24.2222 22.9422 23.1668 22.4111 21.6116 22.0907C20.6655 21.8887 19.7065 21.7533 18.7417 21.6854L18.7248 21.684ZM16.0057 2.66669C19.9177 2.66669 23.0891 5.85154 23.0891 9.78025C23.0891 13.709 19.9177 16.8938 16.0057 16.8938C12.0937 16.8938 8.92234 13.709 8.92234 9.78025C8.92234 5.85154 12.0937 2.66669 16.0057 2.66669ZM16.0057 4.59691C13.1552 4.59691 10.8444 6.91757 10.8444 9.78025C10.8444 12.6429 13.1552 14.9636 16.0057 14.9636C18.8562 14.9636 21.167 12.6429 21.167 9.78025C21.167 6.91757 18.8562 4.59691 16.0057 4.59691Z" fill="#3F5E60"/>
</svg>
