<svg width="37" height="37" viewBox="0 0 37 37" fill="none" xmlns="http://www.w3.org/2000/svg">
<path d="M16.0772 7.66679C21.6153 7.70771 26.5537 11.1574 28.49 16.3385C30.4266 21.5202 28.9582 27.3575 24.7996 31.0105C20.6416 34.663 14.6572 35.3738 9.75714 32.7973L9.69606 32.7759C9.68653 32.7704 9.685 32.7656 9.68295 32.7593L8.77291 32.2443C8.58756 32.1684 8.38217 32.1561 8.25677 32.1879C7.31076 32.528 6.34393 32.8073 5.36219 33.0241L5.18224 33.0457C4.1015 33.0697 3.55697 32.3685 3.55697 31.3479L3.58302 31.1293C3.82844 30.1143 4.13602 29.1153 4.48607 28.1902C4.54037 28.0151 4.52229 27.8256 4.42859 27.65L4.1835 27.1722C2.01714 23.0302 2.18051 18.0581 4.61409 14.0668C7.04735 10.076 11.3951 7.64819 16.0772 7.66679ZM16.0644 9.52619L15.6899 9.53206C11.8066 9.64317 8.23113 11.7083 6.20257 15.0353C4.10886 18.4692 3.96832 22.7465 5.83546 26.3165L6.07669 26.787C6.39754 27.3874 6.46466 28.091 6.24515 28.7935C5.90401 29.6995 5.61888 30.6256 5.39137 31.5666L5.51729 31.076L6.0436 30.9388C6.22426 30.889 6.40537 30.8366 6.58742 30.7814L7.13692 30.6074L7.69507 30.4156C8.28468 30.2533 8.91156 30.2908 9.5291 30.5454C9.65873 30.6079 9.81957 30.6946 10.0223 30.8092L10.5854 31.1324C10.595 31.135 10.6033 31.1372 10.6097 31.139L10.5932 31.1368L10.9769 31.3291C15.0109 33.2769 19.8168 32.7041 23.2782 29.8621L23.5717 29.6128C27.1501 26.4695 28.4133 21.4476 26.7473 16.9898C25.0811 12.5315 20.8307 9.56244 16.0644 9.52619ZM10.1546 19.4795C10.9947 19.4795 11.6764 20.16 11.6764 21.0003C11.6764 21.8406 10.9947 22.5211 10.1546 22.5211C9.31444 22.5211 8.63276 21.8406 8.63276 21.0003C8.63276 20.16 9.31444 19.4795 10.1546 19.4795ZM16.0704 19.4795C16.9105 19.4795 17.5922 20.16 17.5922 21.0003C17.5922 21.8406 16.9105 22.5211 16.0704 22.5211C15.2303 22.5211 14.5486 21.8406 14.5486 21.0003C14.5486 20.16 15.2303 19.4795 16.0704 19.4795ZM21.9862 19.4795C22.8264 19.4795 23.5081 20.16 23.5081 21.0003C23.5081 21.8406 22.8264 22.5211 21.9862 22.5211C21.1461 22.5211 20.4644 21.8406 20.4644 21.0003C20.4644 20.16 21.1461 19.4795 21.9862 19.4795Z" fill="#3F5E60"/>
<rect x="18" y="1" width="18" height="18" rx="9" fill="#FF8628" stroke="white" stroke-width="2"/>
<path d="M29.6855 14H24.5615V13.2856L27.2686 10.2778C27.6696 9.82308 27.9453 9.45426 28.0957 9.17139C28.2497 8.88493 28.3267 8.58952 28.3267 8.28516C28.3267 7.87695 28.2031 7.54215 27.9561 7.28076C27.709 7.01937 27.3796 6.88867 26.9678 6.88867C26.4736 6.88867 26.0887 7.03011 25.813 7.31299C25.5409 7.59229 25.4048 7.98258 25.4048 8.48389H24.4111C24.4111 7.76416 24.6421 7.18229 25.104 6.73828C25.5695 6.29427 26.1908 6.07227 26.9678 6.07227C27.6947 6.07227 28.2694 6.26383 28.6919 6.64697C29.1144 7.02653 29.3257 7.5332 29.3257 8.16699C29.3257 8.93685 28.8351 9.85352 27.854 10.917L25.7593 13.189H29.6855V14Z" fill="white"/>
</svg>
